<?xml version="1.0" encoding="UTF-8" standalone="no"?>
<svg width="63px" height="74px" viewBox="0 0 63 74" version="1.1" xmlns="http://www.w3.org/2000/svg" xmlns:xlink="http://www.w3.org/1999/xlink" xmlns:sketch="http://www.bohemiancoding.com/sketch/ns">
    <!-- Generator: Sketch 3.2.2 (9983) - http://www.bohemiancoding.com/sketch -->
    <title>Untitled 2</title>
    <desc>Created with Sketch.</desc>
    <defs></defs>
    <g id="Page-1" stroke="none" stroke-width="1" fill="none" fill-rule="evenodd" sketch:type="MSPage">
        <g id="andyet-small" sketch:type="MSLayerGroup" fill="#EE0788">
            <g id="Group" sketch:type="MSShapeGroup">
                <path d="M30.516,33.025 L43.18,48.178 L43.59,47.726 C44.956,46.255 46.25,44.815 47.463,43.397 C48.68,41.987 51.796,38.63 52.919,37.188 L57.899,46.149 C57.047,47.352 55.93,48.749 54.546,50.343 C53.167,51.939 51.519,53.77 49.603,55.844 L62.637,71.766 L49.425,71.766 L42.407,63.242 C35.965,69.828 29.27,73.119 22.317,73.119 C16.086,73.119 10.801,71.153 6.459,67.209 C2.206,63.243 0.08,58.342 0.08,52.509 C0.08,45.562 3.449,39.79 10.194,35.189 L14.796,32.078 C14.857,32.049 14.963,31.972 15.113,31.85 L15.75,31.358 C11.105,26.455 8.78,21.631 8.78,16.877 C8.78,12.186 10.331,8.368 13.427,5.422 C16.587,2.475 20.659,1 25.637,1 C30.47,1 34.461,2.427 37.62,5.284 C40.779,8.146 42.359,11.75 42.359,16.108 C42.359,19.115 41.495,21.839 39.762,24.273 C38.061,26.711 34.977,29.625 30.514,33.024 L30.516,33.025 Z M22.086,38.934 L21.493,39.34 C17.149,42.318 14.187,44.707 12.609,46.507 C11.059,48.314 10.287,50.225 10.287,52.238 C10.287,55.126 11.456,57.772 13.794,60.174 C16.222,62.491 18.895,63.647 21.815,63.647 C25.913,63.647 30.639,60.988 35.982,55.667 L22.087,38.934 L22.086,38.934 Z M24.366,25.629 L25.23,24.996 C26.719,23.89 27.949,22.916 28.921,22.091 C29.891,21.263 30.593,20.564 31.018,19.991 C31.927,18.882 32.384,17.51 32.384,15.89 C32.384,14.055 31.761,12.568 30.516,11.422 C29.27,10.281 27.598,9.707 25.502,9.707 C23.589,9.707 21.981,10.295 20.673,11.466 C19.368,12.581 18.712,14.007 18.712,15.752 C18.712,17.798 19.534,19.81 21.174,21.797 L23.815,24.953 C23.907,25.102 24.09,25.331 24.365,25.629 L24.366,25.629 Z" id="Shape"></path>
            </g>
        </g>
    </g>
</svg>