<?xml version="1.0" encoding="UTF-8" standalone="no"?>
<svg width="184px" height="100px" viewBox="0 0 184 100" version="1.1" xmlns="http://www.w3.org/2000/svg" xmlns:xlink="http://www.w3.org/1999/xlink" xmlns:sketch="http://www.bohemiancoding.com/sketch/ns">
    <!-- Generator: Sketch 3.2.2 (9983) - http://www.bohemiancoding.com/sketch -->
    <title>Untitled 2</title>
    <desc>Created with Sketch.</desc>
    <defs></defs>
    <g id="Page-1" stroke="none" stroke-width="1" fill="none" fill-rule="evenodd" sketch:type="MSPage">
        <g id="andyet-small" sketch:type="MSLayerGroup" fill="#FFFFFF">
            <g id="Page-1" sketch:type="MSShapeGroup">
                <g id="andyet-small">
                    <path d="M30.1878165,31.8630252 L42.7158532,46.9394958 L43.1209908,46.489916 C44.4722936,45.0260504 45.7518532,43.5932773 46.9520734,42.1831933 C48.1556697,40.7806723 51.2380917,37.4403361 52.3496881,36.0058824 L57.2763303,44.9218487 C56.4331376,46.1184874 55.3282936,47.5092437 53.9592661,49.094958 C52.5953028,50.6823529 50.9646239,52.505042 49.0697615,54.5680672 L61.9632661,70.410084 L48.8933578,70.410084 L41.951156,61.9294118 C35.5786789,68.4823529 28.9555229,71.7563025 22.0774679,71.7563025 C15.9134679,71.7563025 10.6855046,69.8 6.39020183,65.8756303 C2.1826789,61.9294118 0.0801834862,57.0529412 0.0801834862,51.2495798 C0.0801834862,44.3378151 3.4132844,38.594958 10.0853945,34.0168067 L14.6381284,30.9210084 C14.6988991,30.892437 14.8035596,30.8159664 14.9521101,30.6941176 L15.5826055,30.2042017 C10.9876697,25.3260504 8.68766972,20.5260504 8.68766972,15.7966387 C8.68766972,11.1294118 10.2221284,7.3302521 13.2851376,4.4 C16.4106055,1.46806723 20.4391927,0.000840336134 25.3641468,0.000840336134 C30.1447706,0.000840336134 34.0931743,1.42016807 37.2177982,4.26302521 C40.342422,7.11008403 41.905578,10.6957983 41.905578,15.0327731 C41.905578,18.0243697 41.0505688,20.7344538 39.3363303,23.1563025 C37.6533211,25.5823529 34.6029725,28.4815126 30.1878165,31.8630252 L30.1878165,31.8630252 L30.1878165,31.8630252 Z M21.8487339,37.7420168 L21.2621284,38.1462185 C16.9651376,41.1092437 14.0346422,43.4857143 12.4740183,45.2773109 C10.9412477,47.0747899 10.1765505,48.9764706 10.1765505,50.9789916 C10.1765505,53.8521008 11.3328807,56.4848739 13.6455413,58.8747899 C16.0476697,61.1798319 18.6920367,62.3302521 21.5803303,62.3302521 C25.6342385,62.3302521 30.3093578,59.6848739 35.5947156,54.3907563 L21.8487339,37.7420168 L21.8487339,37.7420168 Z M24.104,24.5042017 L24.9590092,23.8739496 C26.4318532,22.7731092 27.6489541,21.8042017 28.6103119,20.9831933 C29.5699817,20.1596639 30.2646239,19.4638655 30.6849541,18.8941176 C31.5846972,17.7907563 32.0362569,16.4260504 32.0362569,14.8134454 C32.0362569,12.987395 31.4201101,11.5084034 30.1886606,10.3680672 C28.956367,9.23277311 27.302055,8.66218487 25.2291009,8.66218487 C23.3367706,8.66218487 21.7457615,9.24705882 20.4518532,10.412605 C19.1613211,11.5218487 18.5122569,12.9411765 18.5122569,14.6773109 C18.5122569,16.712605 19.3250642,18.7151261 20.9481468,20.6915966 L23.5604404,23.8319328 C23.6515963,23.9806723 23.8322202,24.207563 24.104,24.5042017 L24.104,24.5042017 L24.104,24.5042017 Z" id="Shape"></path>
                    <path d="M46.9942752,23.2487395 C49.4546422,23.4957983 51.7360734,23.6369748 53.8259083,23.6773109 C55.9208073,23.7226891 58.2435963,23.7411765 60.788367,23.7411765 C63.2445138,23.7411765 65.7504587,23.7226891 68.2960734,23.6773109 C70.840844,23.6369748 73.345945,23.4957983 75.8063119,23.2487395 L75.8063119,24.7193277 C74.0026055,24.8840336 72.2807706,25.4176471 70.6357431,26.3142857 C68.9983119,27.2151261 68.1762202,28.687395 68.1762202,30.7268908 C68.1762202,32.3638655 68.7054312,34.5521008 69.7773578,37.2865546 C70.840844,40.0285714 72.0900183,42.9689076 73.529945,46.1134454 C74.9656514,49.2638655 76.4469358,52.4705882 77.9619817,55.7394958 C79.4795596,59.010084 80.6915963,62.0336134 81.5930275,64.812605 C82.0066055,63.9941176 82.6430092,62.6462185 83.5039266,60.7647059 C84.3665321,58.8840336 85.3515229,56.7378151 86.458055,54.3302521 C87.5654312,51.9226891 88.6795596,49.405042 89.7827156,46.792437 C90.8943119,44.1764706 91.9181284,41.7252101 92.8668257,39.4352941 C93.8062385,37.1436975 94.5861284,35.1462185 95.1997431,33.4294118 C95.8217982,31.710084 96.1290275,30.5672269 96.1290275,29.9932773 C96.1290275,29.0142857 95.9019817,28.2361345 95.4512661,27.6647059 C94.9988624,27.092437 94.4468624,26.6218487 93.7859817,26.2512605 C93.127633,25.889916 92.3502752,25.6033613 91.4454679,25.394958 C90.5448807,25.1941176 89.6755229,24.9680672 88.8618716,24.7201681 L88.8618716,23.2495798 C90.7457615,23.4966387 92.6389358,23.6378151 94.5236697,23.6781513 C96.4117798,23.7235294 98.3412477,23.7420168 100.313761,23.7420168 C102.196807,23.7420168 104.052,23.7235294 105.85655,23.6781513 C107.656881,23.6378151 109.506165,23.4966387 111.395119,23.2495798 L111.395119,24.7201681 C109.096807,25.0495798 106.859266,26.4579832 104.683339,28.9478992 C102.509945,31.4445378 100.50367,34.2857143 98.6560734,37.4739496 C96.8042569,40.6605042 95.1777982,43.787395 93.7851376,46.8478992 C92.391633,49.9142857 91.3239266,52.1848739 90.5828624,53.6579832 C87.1417248,60.7638655 84.0154128,66.8546218 81.2250275,71.9218487 C78.4329541,76.9907563 75.9067523,81.2218487 73.6523303,84.6109244 C71.392844,88.0067227 69.3393028,90.6840336 67.4959266,92.6436975 C65.6500183,94.610084 63.8826055,96.0966387 62.1979083,97.1176471 C60.5157431,98.1411765 58.8740917,98.7915966 57.2780183,99.0823529 C55.6777248,99.3663866 54.0132844,99.510084 52.2855413,99.510084 C50.8084771,99.510084 49.3542018,99.302521 47.9168073,98.8957983 C46.4811009,98.487395 45.2049174,97.8546218 44.1017615,96.9983193 C42.9893211,96.1378151 42.0845138,95.0529412 41.3848073,93.7478992 C40.6935413,92.4336134 40.342422,90.887395 40.342422,89.0882353 C40.342422,87.4529412 40.9366239,85.9840336 42.1224954,84.6764706 C43.3176514,83.3680672 44.7305688,82.7117647 46.3781284,82.7117647 C48.2653945,82.7117647 49.7787523,83.1823529 50.9325505,84.1243697 C52.0821284,85.0605042 52.6526972,86.512605 52.6526972,88.4773109 C52.6526972,89.8630252 52.3235229,91.0294118 51.6677064,91.9705882 C51.013578,92.907563 50.6852477,93.5831933 50.6852477,93.992437 C50.6852477,94.4840336 51.2802936,94.7890756 52.4729174,94.9142857 C53.6613211,95.0344538 54.8286239,95.094958 55.9832661,95.094958 C58.4411009,95.094958 60.8660183,94.0932773 63.2428257,92.0907563 C65.6238532,90.0907563 67.7364771,87.8016807 69.5832294,85.2302521 C71.4358899,82.6537815 72.9315229,80.197479 74.083633,77.8731092 C75.2357431,75.5445378 75.8054679,74.0487395 75.8054679,73.3957983 C75.8054679,73.1495798 75.5184954,72.310084 74.9470826,70.8823529 C74.3672294,69.4537815 73.5898716,67.6151261 72.6091009,65.3613445 C71.6190459,63.1168067 70.5108257,60.6092437 69.2802202,57.8260504 C68.0504587,55.0445378 66.8198532,52.287395 65.5909358,49.5495798 C64.3577982,46.8117647 63.1255046,44.1546218 61.8881468,41.5798319 C60.6609174,39.0067227 59.594055,36.8184874 58.6884037,35.0218487 C57.8696881,33.1470588 57.1699817,31.6294118 56.5960367,30.4831933 C56.0204037,29.3394958 55.3223853,28.4201681 54.5062018,27.7252101 C53.6857982,27.0319328 52.6965872,26.4806723 51.5495413,26.0705882 C50.3982752,25.6630252 48.8781651,25.2142857 46.9934312,24.7210084 L46.9934312,23.2487395 L46.9942752,23.2487395 L46.9942752,23.2487395 Z" id="Shape"></path>
                    <path d="M114.518055,43.1084034 C114.518055,47.3621849 115.075119,50.8747899 116.173211,53.6579832 C117.29156,56.4336134 118.683376,58.6428571 120.373138,60.2739496 C122.051083,61.912605 123.853101,63.0563025 125.785101,63.7067227 C127.715413,64.3621849 137.714716,64.1378151 140.497505,63.0352941 C143.29211,61.9327731 145.878239,60.1932773 148.262642,57.8243697 L150.352477,59.7857143 C146.989835,63.3823529 143.538569,66.1201681 140.009651,67.9991597 C136.479046,69.8781513 132.251266,70.8201681 127.325468,70.8201681 C123.790642,70.8201681 120.633101,70.1243697 117.841028,68.7336134 C115.048954,67.3487395 112.670459,65.5067227 110.698789,63.2159664 C108.731339,60.9302521 107.234862,58.3109244 106.205982,55.3697479 C105.176257,52.4310924 104.667303,49.4033613 104.667303,46.2966387 C104.667303,43.1932773 105.177101,40.1663866 106.205982,37.2268908 C107.234862,34.2840336 108.731339,31.6680672 110.698789,29.3806723 C112.670459,27.0907563 115.048954,25.2521008 117.841028,23.8613445 C120.633945,22.4739496 123.790642,21.7756303 127.325468,21.7756303 C133.80767,21.7756303 139.026349,23.5327731 142.970532,27.0487395 C146.906275,30.5663866 149.322752,35.9201681 150.230092,43.1084034 L114.518055,43.1084034 L114.518055,43.1084034 Z M138.535963,39.4344538 C138.281908,37.2268908 137.955266,35.2462185 137.54422,33.4865546 C137.135706,31.7285714 136.478202,30.2605042 135.580147,29.0747899 C134.666899,27.8890756 133.476807,26.9907563 132.007339,26.3781513 C130.524367,25.7630252 128.638789,25.4546218 126.341321,25.4546218 C124.621174,25.4546218 123.034385,25.8890756 121.599523,26.7445378 C120.159596,27.6 118.932367,28.705042 117.905174,30.0537815 C116.877138,31.4033613 116.093872,32.9142857 115.561284,34.5907563 C115.027009,36.2672269 114.764514,37.8823529 114.764514,39.4344538 L138.535963,39.4344538 L138.535963,39.4344538 Z" id="Shape"></path>
                    <path d="M146.828624,27.5403361 L146.828624,25.5781513 C149.454422,25.4991597 151.710532,24.8453782 153.607083,23.6176471 C155.496037,22.3907563 157.129248,20.8378151 158.526972,18.9579832 C159.926385,17.0789916 161.091156,14.9941176 162.037321,12.705042 C162.979266,10.4193277 163.822459,8.21344538 164.565211,6.08571429 L166.281982,6.08571429 L166.281982,23.8613445 L183.155963,23.8613445 L183.155963,27.5403361 L166.282826,27.5403361 L166.282826,56.105042 C166.282826,57.1697479 166.350349,58.2109244 166.473578,59.2336134 C166.593431,60.2563025 166.841578,61.1764706 167.209578,61.9915966 C167.579266,62.8084034 168.111009,63.4647059 168.809872,63.9529412 C169.509578,64.4453782 170.475156,64.6907563 171.705761,64.6907563 C174.171193,64.6907563 176.22389,64.1588235 177.859633,63.0983193 C179.506349,62.0327731 181.14378,60.687395 182.793872,59.0478992 L183.900404,60.2739496 C182.499303,61.5016807 181.14378,62.7495798 179.837211,64.0109244 C178.520514,65.2848739 177.145578,66.4277311 175.71578,67.4487395 C174.275009,68.4714286 172.715229,69.2865546 171.031376,69.8966387 C169.341615,70.5117647 167.522716,70.8210084 165.54767,70.8210084 C162.098092,70.8210084 159.760954,69.7773109 158.529505,67.6932773 C157.295523,65.607563 156.679376,63.1352941 156.679376,60.2739496 L156.679376,27.5403361 L146.828624,27.5403361 L146.828624,27.5403361 Z" id="Shape"></path>
                </g>
            </g>
        </g>
    </g>
</svg>